:version 1.10
:name ASF
:units
  mass 1
  length 1
  angle deg
:documentation
  ASF file generated by Kaydara
:root
  axis xyz
  order  tx ty tz rx ry rz
  position 0 0 0
  orientation 0 0 0
:bonedata
  begin
    id 1
    name RightUpLegDummy
    direction -0.718183 -0.695806 0.00816078
    length 4.904
    axis 0 0 0 xyz
  end
  begin
    id 2
    name RightUpLeg
    direction -0.0736652 -0.994202 0.0783343
    length 17.4976
    axis -2.72909 -3.00389 -4.00133 xyz
    dof rx ry rz
  end
  begin
    id 3
    name RightLeg
    direction -0.0389037 -0.994596 -0.0962598
    length 16.5821
    axis 3.95836 -18.5909 -4.46993 xyz
    dof rx ry rz
  end
  begin
    id 4
    name RightFoot
    direction -0.311643 -0.412678 0.855906
    length 3.77069
    axis -1.99483 -18.8351 -3.27644 xyz
    dof rx ry rz
  end
  begin
    id 5
    name RightToes
    direction -0.317852 0.0389852 0.947339
    length 3.85082
    axis -2.00228 -18.1713 -3.25211 xyz
    dof rx ry rz
  end
  begin
    id 6
    name SpineDummy
    direction 8.3039e-015 1 4.44677e-016
    length 4.6813
    axis 0 0 0 xyz
  end
  begin
    id 7
    name Spine
    direction -0.000262373 0.999988 0.00493267
    length 10.1015
    axis -0.00246081 0.00062579 0.0150362 xyz
    dof rx ry rz
  end
  begin
    id 8
    name Spine1
    direction 0 0 0
    length 0
    axis -0.00349562 0.000650293 0.0196666 xyz
    dof rx ry rz
  end
  begin
    id 9
    name HEadDummy
    direction -0.000343232 0.999999 0.00123745
    length 3.43865
    axis -0.00349562 0.000650293 0.0196666 xyz
  end
  begin
    id 10
    name HEad
    direction -0.0461221 0.980933 0.188796
    length 5.12695
    axis -0.00351404 -7.04812 0.0199272 xyz
    dof rx ry rz
  end
  begin
    id 11
    name LeftShoulder1Dummy
    direction 0.998904 -0.0399089 -0.0244534
    length 3.5433
    axis -0.00349562 0.000650293 0.0196666 xyz
  end
  begin
    id 12
    name LeftShoulder1
    direction 0.99951 1.64443e-005 0.0312999
    length 4.05031
    axis -0.00349562 0.000650293 0.0196666 xyz
    dof rx ry rz
  end
  begin
    id 13
    name LeftArm
    direction 0.984791 0.0515299 0.165927
    length 12.9126
    axis -64.823 -10.7743 5.20463 xyz
    dof rx ry rz
  end
  begin
    id 14
    name LeftForeArm
    direction 0.984968 0.0534808 0.16425
    length 10.8596
    axis -30.0462 -7.70601 1.87451 xyz
    dof rx ry rz
  end
  begin
    id 15
    name LeftHand
    direction 0.975871 0.0289682 0.216418
    length 6.62295
    axis -20.1348 -6.98077 1.86072 xyz
    dof rx ry rz
  end
  begin
    id 16
    name RightShoulderDummy
    direction -0.998877 -0.0405946 -0.0244307
    length 3.5433
    axis -0.00349562 0.000650293 0.0196666 xyz
  end
  begin
    id 17
    name RightShoulder
    direction -0.998933 -0.0249743 -0.0388558
    length 4.05031
    axis -0.0205316 -4.02113 1.41395 xyz
    dof rx ry rz
  end
  begin
    id 18
    name RightArm
    direction -0.997559 0.068664 0.0127103
    length 12.9638
    axis -67.3882 1.84188 -6.15987 xyz
    dof rx ry rz
  end
  begin
    id 19
    name RightForeArm
    direction -0.991508 0.0912848 0.0926241
    length 10.8312
    axis -22.1975 3.41087 -4.28711 xyz
    dof rx ry rz
  end
  begin
    id 20
    name RightHand
    direction -0.989262 0.0600788 0.133232
    length 6.57864
    axis -12.2911 2.17515 -4.39675 xyz
    dof rx ry rz
  end
  begin
    id 21
    name LeftUpLegDummy
    direction 0.718183 -0.695806 0.00816078
    length 4.904
    axis 0 0 0 xyz
  end
  begin
    id 22
    name LeftUpLeg
    direction 0.0831398 -0.99469 0.0606531
    length 17.4976
    axis -1.71016 2.29552 4.63832 xyz
    dof rx ry rz
  end
  begin
    id 23
    name LeftLeg
    direction 0.0498442 -0.991778 -0.117862
    length 16.5821
    axis 5.13757 15.5727 5.13348 xyz
    dof rx ry rz
  end
  begin
    id 24
    name LeftFoot
    direction 0.269026 -0.433896 0.85986
    length 3.77069
    axis -0.576502 15.6961 4.10267 xyz
    dof rx ry rz
  end
  begin
    id 25
    name LeftToes
    direction 0.277311 0.0251143 0.960452
    length 3.85048
    axis -0.576502 15.6961 4.10267 xyz
    dof rx ry rz
  end
:hierarchy
  begin
    root RightUpLegDummy SpineDummy LeftUpLegDummy
    RightUpLegDummy RightUpLeg
    RightUpLeg RightLeg
    RightLeg RightFoot
    RightFoot RightToes
    SpineDummy Spine
    Spine Spine1
    Spine1 HEadDummy LeftShoulder1Dummy RightShoulderDummy
    HEadDummy HEad
    LeftShoulder1Dummy LeftShoulder1
    LeftShoulder1 LeftArm
    LeftArm LeftForeArm
    LeftForeArm LeftHand
    RightShoulderDummy RightShoulder
    RightShoulder RightArm
    RightArm RightForeArm
    RightForeArm RightHand
    LeftUpLegDummy LeftUpLeg
    LeftUpLeg LeftLeg
    LeftLeg LeftFoot
    LeftFoot LeftToes
  end

:SAMPLES-PER-SECOND 30
:FULLY-SPECIFIED
:DEGREES
19
root  -5.7046 40.5434 86.4917 178.331 9.74359 -179.847
RightUpLeg  0.304806 -1.69782 -0.798937
RightLeg  2.5196 -1.52795 0.370338
RightFoot  -0.449547 -0.130405 1.0994
RightToes  -5.82073e-011 -3.18055e-015 -2.98177e-016
Spine  -4.61074 0.339676 -1.65031
Spine1  11.4047 0.0267246 2.14285
HEad  -1.61089 -2.83051 -0.470633
LeftShoulder1  -3.88251e-019 9.70628e-020 -3.87848e-018
LeftArm  -26.1818 55.0388 -71.506
LeftForeArm  7.05841 -11.5518 -3.32942
LeftHand  -0.486546 -1.50289 8.84884
RightShoulder  7.49165 10.4314 35.5681
RightArm  18.3103 -37.5766 21.6673
RightForeArm  -3.6758 31.7643 -17.037
RightHand  -1.16591 2.69247 -16.4924
LeftUpLeg  0.486305 -2.75181 -3.11042
LeftLeg  3.92751 15.6881 3.68984
LeftFoot  -1.9799 0.196578 -2.1288
LeftToes  -2.27483e-011 -5.53417e-011 9.36564e-012
20
root  -5.70583 40.5422 86.4915 178.327 9.5654 -179.846
RightUpLeg  0.335641 -1.73624 -0.821138
RightLeg  2.53826 -1.64417 0.381385
RightFoot  -0.476515 -0.132409 1.11994
RightToes  -5.82073e-011 -3.18055e-015 -2.98177e-016
Spine  -4.82643 0.39915 -1.80818
Spine1  11.677 0.0201723 2.43684
HEad  -1.26959 -2.69482 -0.721395
LeftShoulder1  -3.88251e-019 9.70628e-020 -3.87848e-018
LeftArm  -26.3669 54.8796 -71.9186
LeftForeArm  6.64216 -12.0817 -3.34477
LeftHand  -0.466954 -1.13305 8.98411
RightShoulder  7.39212 10.3771 35.1825
RightArm  17.6868 -36.7941 22.9126
RightForeArm  -1.94743 29.7983 -15.9639
RightHand  -1.19662 2.8624 -16.5903
LeftUpLeg  0.456059 -2.75804 -3.10768
LeftLeg  3.94316 15.5239 3.6861
LeftFoot  -1.99808 0.196485 -2.12782
LeftToes  -2.27483e-011 -5.53417e-011 9.36564e-012
21
root  -5.70176 40.5417 86.4909 178.329 9.38617 -179.821
RightUpLeg  0.392442 -1.73557 -0.800752
RightLeg  2.51747 -1.82548 0.387155
RightFoot  -0.517764 -0.141282 1.21085
RightToes  -5.82073e-011 -3.18055e-015 -2.98177e-016
Spine  -4.93274 0.532206 -1.91306
Spine1  11.8618 0.0918795 2.70126
HEad  -1.11861 -2.56853 -0.799266
LeftShoulder1  -3.88251e-019 9.70628e-020 -3.87848e-018
LeftArm  -26.5177 54.7097 -72.3243
LeftForeArm  6.24156 -12.673 -3.37407
LeftHand  -0.431558 -0.85167 8.69946
RightShoulder  7.27866 10.3113 34.7483
RightArm  17.1466 -36.4085 23.7646
RightForeArm  -0.370756 27.971 -15.0091
RightHand  -1.1618 3.13042 -15.6185
LeftUpLeg  0.41453 -2.69976 -3.04636
LeftLeg  3.98557 15.2826 3.65369
LeftFoot  -2.02535 0.195503 -2.11749
LeftToes  -2.27483e-011 -5.53417e-011 9.36564e-012
22
root  -5.69978 40.5418 86.49 178.317 9.23193 -179.803
RightUpLeg  0.427606 -1.74884 -0.795047
RightLeg  2.54479 -1.97672 0.388852
RightFoot  -0.559384 -0.148721 1.28707
RightToes  -5.82073e-011 -3.18055e-015 -2.98177e-016
Spine  -4.92096 0.731798 -1.80044
Spine1  11.9868 0.307962 2.63705
HEad  -1.08277 -2.55839 -0.676338
LeftShoulder1  -3.88251e-019 9.70628e-020 -3.87848e-018
LeftArm  -26.4595 54.437 -72.5304
LeftForeArm  6.20191 -13.1107 -3.40313
LeftHand  -0.444004 -1.16651 8.50642
RightShoulder  7.2502 10.2928 34.643
RightArm  16.9255 -36.1473 24.0004
RightForeArm  1.12747 26.3292 -14.1868
RightHand  -1.10136 2.98521 -15.0718
LeftUpLeg  0.385067 -2.6394 -2.99559
LeftLeg  4.03589 15.0641 3.62424
LeftFoot  -2.04515 0.193853 -2.10015
LeftToes  -2.27483e-011 -5.53417e-011 9.36564e-012
23
root  -5.70136 40.5423 86.4888 178.324 9.09171 -179.804
RightUpLeg  0.424969 -1.78287 -0.817816
RightLeg  2.58552 -2.0667 0.400914
RightFoot  -0.576051 -0.14729 1.27241
RightToes  -5.82073e-011 -3.18055e-015 -2.98177e-016
Spine  -4.94203 0.907399 -1.53933
Spine1  12.1729 0.566255 2.2955
HEad  -1.09003 -2.65432 -0.549337
LeftShoulder1  -3.88251e-019 9.70628e-020 -3.87848e-018
LeftArm  -26.1797 54.1572 -72.4964
LeftForeArm  6.37768 -13.4447 -3.41907
LeftHand  -0.50384 -1.83188 8.73054
RightShoulder  7.31916 10.3344 34.9046
RightArm  17.0254 -35.8695 23.8061
RightForeArm  2.71195 24.799 -13.4534
RightHand  -1.0943 2.7929 -15.312
LeftUpLeg  0.355928 -2.61984 -2.98592
LeftLeg  4.04097 14.914 3.59944
LeftFoot  -2.04366 0.192244 -2.08324
LeftToes  -2.27483e-011 -5.53417e-011 9.36564e-012
